# xmcd
#
# Track frame offsets: 
#        150
#        11835
#        25027
#        37780
#        49697
#        61780
#        74447
#        86302
#        98675
#        111337
#        123515
#        135360
#        149272
#        161077
#        173025
#        184505
#        196957
#        208962
#        220447
#        232947
#        244487
#        256055
#        268130
#        276547
#
# Disc length: 3789 seconds
#
# Revision: 2
# Processed by: cddbd v1.5.2PL0 Copyright (c) Steve Scherf et al.
# Submitted via: ExactAudioCopy v0.95b4
#
DISCID=5b0ecb18
DTITLE=Joe Turner - Tell Me Pretty Baby
DYEAR=1949
DGENRE=Blues
TTITLE0=Wine-O-Baby Boogie 1948
TTITLE1=B and O Blues 1948
TTITLE2=Rocket Boogie "88" (part 1) 1948
TTITLE3=Old Piney Brown's Gone 1948
TTITLE4=Baby, Won't You Marry Me 1948
TTITLE5=Skid Row Boogie 1948
TTITLE6=Christmas Date Boogie 1948
TTITLE7=Radar Blues 1948
TTITLE8=Tell Me Pretty Baby 1948
TTITLE9=Rocket Boogie "88" (part 2) 1948
TTITLE10=Trouble Blues 1948
TTITLE11=Half Tight Boogie 1948
TTITLE12=Mardi Gras Boogie 1949
TTITLE13=My Heart Belongs to You 1949
TTITLE14=So Many Women Blues 1949
TTITLE15=Messin' Around 1949
TTITLE16=I Don't Dig It 1949
TTITLE17=Rainy Weather Blues 1949
TTITLE18=Boogie Woogie Baby 1949
TTITLE19=Married Woman Blues 1949
TTITLE20=Feelin' So Sad 1949
TTITLE21=Moody Baby 1949
TTITLE22=Around the Clock Blues (part 1) 1947
TTITLE23=Around the Clock Blues (part 2) 1947
EXTD=
EXTT0=
EXTT1=
EXTT2=
EXTT3=
EXTT4=
EXTT5=
EXTT6=
EXTT7=
EXTT8=
EXTT9=
EXTT10=
EXTT11=
EXTT12=
EXTT13=
EXTT14=
EXTT15=
EXTT16=
EXTT17=
EXTT18=
EXTT19=
EXTT20=
EXTT21=
EXTT22=
EXTT23=
PLAYORDER=
